<svg width="71" height="70" viewBox="0 0 71 70" fill="none" xmlns="http://www.w3.org/2000/svg">
<g clip-path="url(#clip0_2002_134)">
<path d="M46.3656 44.9623C52.0573 39.1017 52.0066 29.9633 46.2481 24.1601C40.4262 18.2941 30.8706 18.21 24.9439 23.9711C22.07 26.7643 20.4678 30.5 20.4318 34.4881C20.3964 38.4761 21.9305 42.2386 24.7529 45.0831C28.6556 49.0171 34.3233 50.4851 39.6532 48.9717C40.3034 49.4791 41.6766 50.3115 43.6733 50.3115C44.7647 50.3115 46.0418 50.0632 47.4891 49.3763C47.7989 49.2301 47.9925 48.9156 47.9885 48.5738C47.9831 48.232 47.7788 47.9236 47.4664 47.7848C47.0812 47.6132 45.9403 46.9583 45.7648 46.218C45.7394 46.1078 45.662 45.776 46.0926 45.2366C46.1847 45.1472 46.2755 45.0557 46.3656 44.9623ZM44.0638 46.6252C44.234 47.3395 44.6893 47.9196 45.1806 48.3615C42.2059 49.0985 40.5731 47.471 40.499 47.3949C40.3314 47.2167 40.0998 47.1199 39.8621 47.1199C39.7733 47.1199 39.6839 47.1339 39.5964 47.1613C34.7619 48.7007 29.5501 47.4336 25.9953 43.8508C23.5046 41.34 22.1501 38.0209 22.1821 34.5034C22.2135 30.9867 23.6274 27.6915 26.1642 25.2255C31.4053 20.1313 39.8574 20.2047 45.0057 25.3917C50.0853 30.512 50.1314 38.5736 45.1106 43.7433C45.0218 43.8347 44.931 43.9262 44.8389 44.015C44.8148 44.0377 44.7928 44.0617 44.7721 44.0864C43.9296 45.1058 43.9216 46.0297 44.0638 46.6252Z" fill="#013799"/>
<path d="M41.4555 30.896H29.544C29.0607 30.896 28.6688 31.2872 28.6688 31.7712C28.6688 32.2545 29.0607 32.6457 29.544 32.6457H41.4555C41.9395 32.6457 42.3307 32.2545 42.3307 31.7712C42.3307 31.2872 41.9395 30.896 41.4555 30.896Z" fill="#013799"/>
<path d="M41.4555 37.2251H29.544C29.0607 37.2251 28.6688 37.6163 28.6688 38.1003C28.6688 38.5836 29.0607 38.9748 29.544 38.9748H41.4555C41.9395 38.9748 42.3307 38.5836 42.3307 38.1003C42.3307 37.6163 41.9395 37.2251 41.4555 37.2251Z" fill="#013799"/>
<path d="M69.306 12.5917C69.306 6.30721 64.193 1.1936 57.9085 1.1936C51.6233 1.1936 46.5104 6.30721 46.5104 12.5917C46.5104 18.8763 51.6233 23.9899 57.9085 23.9899C64.193 23.9899 69.306 18.8763 69.306 12.5917ZM52.1534 20.3175C52.2595 17.8655 53.861 15.764 56.2282 15.0457C56.5647 14.9436 56.8083 14.6485 56.8444 14.2974C56.8804 13.9462 56.7015 13.6084 56.3918 13.4402C55.2783 12.8347 54.5867 11.6718 54.5867 10.4054C54.5867 8.50151 56.1361 6.95208 58.04 6.95208C59.9433 6.95208 61.4927 8.50151 61.4927 10.4054C61.4927 11.7092 60.7684 12.8881 59.6015 13.4816C59.287 13.6418 59.1001 13.9749 59.1268 14.3274C59.1529 14.6792 59.3892 14.981 59.7243 15.0918C62.0107 15.8495 63.5582 17.931 63.6636 20.3169C62.0548 21.5192 60.0661 22.2401 57.9085 22.2401C55.7502 22.2401 53.7622 21.5192 52.1534 20.3175ZM48.2601 12.5917C48.2601 7.27185 52.588 2.94398 57.9085 2.94398C63.2284 2.94398 67.5563 7.27185 67.5563 12.5917C67.5563 14.9863 66.6744 17.1746 65.2251 18.8629C64.7585 16.8588 63.4994 15.1265 61.719 14.0838C62.683 13.1251 63.2431 11.8133 63.2431 10.4054C63.2431 7.53687 60.9086 5.20237 58.04 5.20237C55.1715 5.20237 52.837 7.53687 52.837 10.4054C52.837 11.7579 53.3603 13.0317 54.2622 13.9836C52.3897 15.0117 51.0686 16.7847 50.5906 18.8622C49.1419 17.1739 48.2601 14.9856 48.2601 12.5917Z" fill="#013799"/>
<path d="M13.0917 1.1936C6.80721 1.1936 1.6936 6.30721 1.6936 12.5917C1.6936 18.8763 6.80721 23.9899 13.0917 23.9899C19.3763 23.9899 24.4899 18.8763 24.4899 12.5917C24.4899 6.30721 19.3763 1.1936 13.0917 1.1936ZM7.33659 20.3175C7.4434 17.8655 9.04491 15.764 11.4121 15.0457C11.7486 14.9436 11.9922 14.6485 12.0276 14.2974C12.0637 13.9462 11.8854 13.6084 11.575 13.4402C10.4615 12.8347 9.77056 11.6718 9.77056 10.4054C9.77056 8.50151 11.3193 6.95208 13.2232 6.95208C15.1272 6.95208 16.6766 8.50151 16.6766 10.4054C16.6766 11.7092 15.9516 12.8875 14.7847 13.4816C14.4703 13.6418 14.2827 13.9749 14.3094 14.3274C14.3361 14.6792 14.5717 14.981 14.9069 15.0918C17.1933 15.8495 18.7414 17.931 18.8469 20.3169C17.238 21.5192 15.25 22.2401 13.0917 22.2401C10.9335 22.2401 8.94544 21.5192 7.33659 20.3175ZM20.409 18.8629C19.9417 16.8588 18.682 15.1265 16.9022 14.0838C17.8655 13.1251 18.4263 11.8133 18.4263 10.4054C18.4263 7.53687 16.0918 5.20237 13.2232 5.20237C10.3547 5.20237 8.02018 7.53687 8.02018 10.4054C8.02018 11.7579 8.54423 13.0317 9.44545 13.9836C7.57291 15.0117 6.25245 16.7847 5.7738 18.8622C4.32517 17.1739 3.44398 14.9856 3.44398 12.5917C3.44398 7.27185 7.77185 2.94398 13.0917 2.94398C18.4116 2.94398 22.7401 7.27185 22.7401 12.5917C22.7401 14.9863 21.8583 17.1746 20.409 18.8629Z" fill="#013799"/>
<path d="M57.9085 46.1025C51.6233 46.1025 46.5104 51.2155 46.5104 57.5007C46.5104 63.7852 51.6233 68.8988 57.9085 68.8988C64.193 68.8988 69.306 63.7852 69.306 57.5007C69.306 51.2155 64.193 46.1025 57.9085 46.1025ZM52.1534 65.2258C52.2595 62.7745 53.861 60.673 56.2282 59.9547C56.5647 59.8519 56.8083 59.5575 56.8444 59.2063C56.8804 58.8552 56.7015 58.5174 56.3918 58.3491C55.2783 57.743 54.5867 56.5801 54.5867 55.3137C54.5867 53.4098 56.1361 51.861 58.04 51.861C59.9433 51.861 61.4927 53.4098 61.4927 55.3137C61.4927 56.6181 60.7684 57.7971 59.6015 58.3899C59.287 58.5508 59.1001 58.8839 59.1268 59.2357C59.1529 59.5882 59.3892 59.8899 59.7243 60.0007C62.0107 60.7577 63.5582 62.8399 63.6636 65.2258C62.0548 66.4274 60.0661 67.1484 57.9085 67.1484C55.7502 67.1484 53.7622 66.4274 52.1534 65.2258ZM65.2251 63.7718C64.7585 61.7678 63.4994 60.0354 61.719 58.9927C62.683 58.0334 63.2431 56.7223 63.2431 55.3137C63.2431 52.4451 60.9086 50.1106 58.04 50.1106C55.1715 50.1106 52.837 52.4451 52.837 55.3137C52.837 56.6662 53.3603 57.9406 54.2622 58.8926C52.3897 59.9206 51.0686 61.6937 50.5906 63.7712C49.1419 62.0829 48.2601 59.8946 48.2601 57.5007C48.2601 52.1801 52.588 47.8522 57.9085 47.8522C63.2284 47.8522 67.5563 52.1801 67.5563 57.5007C67.5563 59.8946 66.6744 62.0835 65.2251 63.7718Z" fill="#013799"/>
<path d="M13.0917 46.1025C6.80721 46.1025 1.6936 51.2155 1.6936 57.5007C1.6936 63.7852 6.80721 68.8988 13.0917 68.8988C19.3763 68.8988 24.4899 63.7852 24.4899 57.5007C24.4899 51.2155 19.3763 46.1025 13.0917 46.1025ZM7.33659 65.2258C7.4434 62.7745 9.04491 60.673 11.4121 59.9547C11.7486 59.8519 11.9922 59.5575 12.0276 59.2063C12.0637 58.8552 11.8854 58.5174 11.575 58.3491C10.4615 57.743 9.77056 56.5801 9.77056 55.3137C9.77056 53.4098 11.3193 51.861 13.2232 51.861C15.1272 51.861 16.6766 53.4098 16.6766 55.3137C16.6766 56.6181 15.9516 57.7964 14.7847 58.3899C14.4703 58.5508 14.2827 58.8839 14.3094 59.2357C14.3361 59.5882 14.5717 59.8899 14.9069 60.0007C17.1933 60.7577 18.7414 62.8399 18.8469 65.2258C17.238 66.4274 15.25 67.1484 13.0917 67.1484C10.9335 67.1484 8.94544 66.4274 7.33659 65.2258ZM20.409 63.7718C19.9417 61.7678 18.682 60.0354 16.9022 58.9927C17.8655 58.0334 18.4263 56.7223 18.4263 55.3137C18.4263 52.4451 16.0918 50.1106 13.2232 50.1106C10.3547 50.1106 8.02018 52.4451 8.02018 55.3137C8.02018 56.6662 8.54423 57.9406 9.44545 58.8926C7.57291 59.9206 6.25245 61.6937 5.7738 63.7712C4.32517 62.0829 3.44398 59.8946 3.44398 57.5007C3.44398 52.1801 7.77185 47.8522 13.0917 47.8522C18.4116 47.8522 22.7401 52.1801 22.7401 57.5007C22.7401 59.8946 21.8583 62.0835 20.409 63.7718Z" fill="#013799"/>
<path d="M25.3383 0.0600814C24.8897 -0.110817 24.381 0.112152 24.2088 0.564098L23.0853 3.49808C22.9117 3.94936 23.138 4.45538 23.5893 4.62761L26.5226 5.7518C26.6254 5.79119 26.7309 5.80988 26.8357 5.80988C27.1875 5.80988 27.5193 5.59626 27.6521 5.24712C27.8257 4.7965 27.5994 4.29048 27.1481 4.11758L26.2369 3.76844C29.1542 2.43463 32.2651 1.74971 35.5001 1.74971C38.9588 1.74971 42.2793 2.52275 45.3695 4.04682C45.4943 4.10824 45.6259 4.13761 45.7554 4.13761C46.0785 4.13761 46.3889 3.9587 46.5411 3.64962C46.7554 3.21636 46.5765 2.69165 46.1432 2.47803C42.8107 0.833797 39.2299 0 35.5001 0C31.9907 0 28.6168 0.747681 25.4538 2.20366L25.8424 1.18961C26.0159 0.738335 25.7896 0.232315 25.3383 0.0600814Z" fill="#013799"/>
<path d="M4.34455 47.4516C4.69636 47.4516 5.02814 47.238 5.16099 46.8895L6.28518 43.9556C6.45808 43.505 6.23177 42.9989 5.78049 42.826C5.33189 42.6538 4.82386 42.8781 4.65096 43.3307L4.28246 44.2927C2.93931 41.3667 2.24971 38.2458 2.24971 35.0001C2.24971 31.5407 3.02275 28.2202 4.54682 25.1307C4.76111 24.6975 4.58287 24.1727 4.14962 23.9591C3.71569 23.7455 3.19165 23.9231 2.97803 24.3563C1.3338 27.6888 0.5 31.2704 0.5 35.0001C0.5 38.4935 1.24101 41.8541 2.68496 45.005L1.72299 44.6372C1.27438 44.4663 0.765694 44.6892 0.59346 45.1412C0.420559 45.5925 0.646198 46.0978 1.09748 46.2707L4.03146 47.3936C4.13426 47.433 4.24041 47.4516 4.34455 47.4516Z" fill="#013799"/>
<path d="M47.4236 65.3173L44.489 64.1937C44.0404 64.0208 43.5324 64.2458 43.3595 64.6978C43.1859 65.149 43.4129 65.6551 43.8635 65.8273L44.8335 66.1991C41.8961 67.555 38.7606 68.2499 35.5001 68.2499C32.0408 68.2499 28.7203 67.4775 25.6308 65.9535C25.1968 65.7398 24.6728 65.9174 24.4592 66.3507C24.2449 66.7839 24.4231 67.3086 24.8564 67.5223C28.1889 69.1658 31.7704 70.0003 35.5001 70.0003C39.0056 70.0003 42.3768 69.2539 45.5364 67.8006L45.1706 68.7559C44.997 69.2072 45.2233 69.7132 45.6746 69.8855C45.7767 69.9248 45.8829 69.9435 45.987 69.9435C46.3395 69.9435 46.6706 69.7299 46.8041 69.3814L47.9277 66.4468C48.1012 65.9962 47.8749 65.4902 47.4236 65.3173Z" fill="#013799"/>
<path d="M69.2893 25.3084C69.7379 25.4813 70.2459 25.2564 70.4188 24.8044C70.5917 24.3531 70.3661 23.8471 69.9148 23.6749L66.9802 22.552C66.5329 22.3798 66.0242 22.6048 65.8506 23.056L64.7278 25.9894C64.5542 26.4406 64.7812 26.9467 65.2318 27.1189C65.3346 27.1583 65.4408 27.177 65.5449 27.177C65.8967 27.177 66.2285 26.9633 66.362 26.6149L66.7131 25.697C68.0596 28.6256 68.7499 31.7505 68.7499 35.0002C68.7499 38.4589 67.9775 41.7794 66.4535 44.8696C66.2385 45.3029 66.4174 45.8276 66.8507 46.0412C66.9755 46.1026 67.107 46.1313 67.2365 46.1313C67.5596 46.1313 67.87 45.9531 68.0223 45.6433C69.6658 42.3108 70.5003 38.73 70.5003 35.0002C70.5003 31.4795 69.7479 28.0942 68.2819 24.9232L69.2893 25.3084Z" fill="#013799"/>
</g>
<defs>
<clipPath id="clip0_2002_134">
<rect width="70" height="70" fill="white" transform="translate(0.5)"/>
</clipPath>
</defs>
</svg>
