<svg width="71" height="70" viewBox="0 0 71 70" fill="none" xmlns="http://www.w3.org/2000/svg">
<g clip-path="url(#clip0_2002_42)">
<path d="M14.3466 33.8886C9.86848 33.8886 6.22559 30.2788 6.22559 25.8431C6.22559 21.4069 9.86848 17.7971 14.3466 17.7971C18.8241 17.7971 22.4665 21.4064 22.4665 25.8431C22.4665 30.2793 18.8241 33.8886 14.3466 33.8886ZM14.3466 20.0552C11.1133 20.0552 8.48365 22.6517 8.48365 25.8431C8.48365 29.034 11.1133 31.6305 14.3466 31.6305C17.5788 31.6305 20.2084 29.034 20.2084 25.8431C20.2084 22.6517 17.5788 20.0552 14.3466 20.0552Z" fill="#013799"/>
<path d="M17.6135 56.165H3.45103C1.82364 56.165 0.5 54.8497 0.5 53.2328V49.5397C0.5 41.9794 6.71133 35.8281 14.3466 35.8281C17.3495 35.8281 20.2079 36.7653 22.6104 38.5377C23.1121 38.9082 23.219 39.6149 22.8486 40.1171C22.4781 40.6182 21.7719 40.7252 21.2697 40.3553C19.258 38.8712 16.8644 38.0862 14.3466 38.0862C7.95668 38.0862 2.75806 43.2247 2.75806 49.5397V53.2328C2.75806 53.6043 3.06899 53.907 3.45103 53.907H17.6141C18.2371 53.907 18.7431 54.4125 18.7431 55.036C18.7431 55.659 18.2371 56.165 17.6135 56.165Z" fill="#013799"/>
<path d="M67.5491 55.3105H53.3865C52.7636 55.3105 52.2575 54.805 52.2575 54.1815C52.2575 53.5585 52.7636 53.0524 53.3865 53.0524H67.5496C67.9317 53.0524 68.2426 52.7503 68.2426 52.3787V48.6857C68.2426 42.3696 63.044 37.2322 56.654 37.2322C53.9852 37.2322 51.3799 38.1512 49.3175 39.8205C48.8335 40.2124 48.1229 40.138 47.7298 39.6534C47.3378 39.1689 47.4117 38.4577 47.8974 38.0652C50.36 36.0723 53.4698 34.9741 56.654 34.9741C64.2888 34.9741 70.5001 41.1248 70.5001 48.6857V52.3787C70.5001 53.9951 69.1765 55.3105 67.5491 55.3105Z" fill="#013799"/>
<path d="M56.6533 33.3307C52.1758 33.3307 48.5334 29.7215 48.5334 25.2853C48.5334 20.8491 52.1758 17.2393 56.6533 17.2393C61.1314 17.2393 64.7743 20.8485 64.7743 25.2853C64.7743 29.722 61.1309 33.3307 56.6533 33.3307ZM56.6533 19.4973C53.4211 19.4973 50.7915 22.0939 50.7915 25.2853C50.7915 28.4767 53.4211 31.0727 56.6533 31.0727C59.8866 31.0727 62.5162 28.4767 62.5162 25.2853C62.5162 22.0939 59.8861 19.4973 56.6533 19.4973Z" fill="#013799"/>
<path d="M50.8236 59.8388H20.1766C18.1407 59.8388 16.4846 58.1949 16.4846 56.1739V50.9797C16.4846 40.5989 25.0141 32.1538 35.5001 32.1538C45.9861 32.1538 54.5156 40.5989 54.5156 50.9797V56.1739C54.5156 58.1949 52.8595 59.8388 50.8236 59.8388ZM35.5001 34.4124C26.26 34.4124 18.7427 41.8449 18.7427 50.9802V56.1744C18.7427 56.9501 19.386 57.5813 20.1766 57.5813H50.8231C51.6136 57.5813 52.257 56.9501 52.257 56.1744V50.9802C52.2575 41.8449 44.7402 34.4124 35.5001 34.4124Z" fill="#013799"/>
<path d="M35.1076 30.8346C29.3544 30.8346 24.6729 26.1977 24.6729 20.4974C24.6729 14.7977 29.3538 10.1614 35.1076 10.1614C40.8619 10.1614 45.5429 14.7982 45.5429 20.498C45.5429 26.1983 40.8613 30.8346 35.1076 30.8346ZM35.1076 12.4194C30.5992 12.4194 26.9309 16.0436 26.9309 20.498C26.9309 24.9529 30.5992 28.5771 35.1076 28.5771C39.6165 28.5771 43.2848 24.9529 43.2848 20.498C43.2848 16.0436 39.6165 12.4194 35.1076 12.4194Z" fill="#013799"/>
</g>
<defs>
<clipPath id="clip0_2002_42">
<rect width="70" height="70" fill="white" transform="translate(0.5)"/>
</clipPath>
</defs>
</svg>
