<svg width="71" height="70" viewBox="0 0 71 70" fill="none" xmlns="http://www.w3.org/2000/svg">
<g clip-path="url(#clip0_2002_286)">
<path d="M67.4912 57.6294H61.8256V41.3652C61.8256 40.6273 61.2832 40.5267 58.9693 38.1203C59.6128 36.8695 59.4263 35.2753 58.3538 34.2029L55.5818 31.4309C54.2693 30.1184 52.1335 30.1183 50.8211 31.4309C49.5086 32.7436 49.5085 34.8792 50.821 36.1917L53.5929 38.9637C54.6758 40.0465 56.2792 40.2188 57.522 39.5733L59.7748 41.7942V57.6294H53.6664L52.9249 46.7247C52.6501 42.6842 49.6643 39.4212 45.6642 38.7894C43.6527 38.4718 38.4642 37.6524 36.384 37.324C35.5924 37.1989 35.9602 36.134 35.8763 35.3914H36.6796C41.1261 35.3914 44.7436 31.7739 44.7436 27.3273C44.7436 25.1782 44.7436 18.9463 44.7436 16.8454C44.7436 9.50068 38.7683 3.52539 31.4236 3.52539H29.2252C21.8805 3.52539 15.9052 9.50068 15.9052 16.8454V23.1737C15.9052 23.7399 16.3642 24.199 16.9306 24.199C17.497 24.199 17.956 23.7399 17.956 23.1737V20.6218C18.591 20.8302 19.2461 20.9912 19.919 21.1063L19.9545 25.3006C20.015 28.1188 21.2249 30.7471 23.2738 32.5113C23.5491 32.7483 23.8596 33.0376 24.1897 33.3405H23.9691C20.6534 33.3405 17.956 30.643 17.956 27.3272C17.956 26.7609 17.497 26.3018 16.9306 26.3018C16.3642 26.3018 15.9052 26.7609 15.9052 27.3272C15.9052 31.7737 19.5226 35.3913 23.9691 35.3913H24.5502C24.4664 36.1329 24.834 37.1989 24.0424 37.3239C21.9602 37.6527 16.7749 38.4715 14.7622 38.7893C10.762 39.421 7.77617 42.6841 7.5015 46.7245L6.76008 57.6292H3.50877C1.84969 57.6294 0.5 58.9791 0.5 60.6381V63.4658C0.5 65.1248 1.84969 66.4745 3.50877 66.4745H67.4912C69.1503 66.4745 70.5 65.1248 70.5 63.4658V60.6381C70.5 58.9791 69.1503 57.6294 67.4912 57.6294ZM55.043 37.5135L52.2712 34.7416C51.7582 34.2286 51.7582 33.3939 52.2712 32.881H52.271C52.7843 32.368 53.6189 32.368 54.1316 32.881L56.9036 35.6529C57.4177 36.167 57.4179 36.9992 56.9035 37.5134C56.3894 38.0276 55.5572 38.0277 55.043 37.5135ZM36.6795 33.3406H36.553C36.8839 33.037 37.1976 32.7449 37.4689 32.5114C39.5178 30.7472 40.7277 28.1189 40.7881 25.3007C40.7883 25.2938 40.7884 25.2868 40.7884 25.2798L40.7947 19.3466C41.5154 19.6739 42.1839 19.8682 42.6926 19.9824V27.3274C42.6926 30.643 39.9952 33.3406 36.6795 33.3406ZM17.956 16.8454C17.956 10.6315 23.0113 5.57617 29.2252 5.57617H31.4236C37.6375 5.57617 42.6928 10.6315 42.6928 16.8454V17.8657C41.4045 17.4913 39.3391 16.5287 38.4408 14.1144C38.1977 13.4605 37.3841 13.2349 36.8389 13.6714C36.734 13.7555 26.4831 21.8419 17.956 18.4429V16.8454ZM22.005 25.27L21.9715 21.3114C22.1446 21.317 22.3184 21.3208 22.4934 21.3208C27.5875 21.3206 32.9678 18.9067 37.0818 16.0369C37.5537 16.8622 38.131 17.5216 38.7453 18.0496L38.7375 25.2667C38.6868 27.5004 37.737 29.5741 36.1307 30.9573C34.6514 32.231 32.7243 34.4329 30.3713 34.4663C28.0301 34.4331 26.1268 32.2618 24.6119 30.9573C23.0032 29.572 22.0529 27.4941 22.005 25.27ZM24.3623 39.3497C25.6601 39.1447 26.6018 38.0424 26.6014 36.7285L26.601 35.3914H26.7765C29.1702 36.863 31.4352 36.8917 33.8255 35.477L33.8251 36.7286C33.8246 38.0426 34.7664 39.145 36.0641 39.3498L40.4241 40.0383C38.4095 43.7735 34.5287 46.1369 30.2186 46.1588C25.8989 46.1369 22.0172 43.7736 20.0025 40.0383L24.3623 39.3497ZM68.4492 63.4658C68.4492 63.994 68.0194 64.4237 67.4912 64.4237H3.50877C2.98062 64.4237 2.55078 63.994 2.55078 63.4658V60.6381C2.55078 60.1099 2.98062 59.6802 3.50877 59.6802H37.6234C38.1898 59.6802 38.6488 59.2211 38.6488 58.6548C38.6488 58.0885 38.1898 57.6294 37.6234 57.6294H16.1896V52.8338C16.1896 52.2675 15.7306 51.8084 15.1642 51.8084C14.5978 51.8084 14.1388 52.2675 14.1388 52.8338V57.6294H8.81551L9.5475 46.8639C9.75695 43.784 12.0329 41.2967 15.0821 40.8152L17.8742 40.3742C20.1317 45.134 24.8878 48.1824 30.2184 48.2095C35.5391 48.1825 40.2946 45.1341 42.5521 40.3742L45.3442 40.8152C48.3934 41.2967 50.6694 43.784 50.8788 46.8639L51.6108 57.6294H46.4184V52.8338C46.4184 52.2675 45.9594 51.8084 45.393 51.8084C44.8265 51.8084 44.3676 52.2675 44.3676 52.8338V57.6294H41.7237C41.1573 57.6294 40.6983 58.0885 40.6983 58.6548C40.6983 59.2211 41.1573 59.6802 41.7237 59.6802H67.4912C68.0194 59.6802 68.4492 60.1099 68.4492 60.6381V63.4658Z" fill="#013799"/>
<path d="M65.0091 4.99854H54.3505C51.3227 4.99854 48.8596 7.4618 48.8596 10.4896V13.7402C48.8596 16.4195 50.7886 18.6566 53.3306 19.1362L53.3536 23.0927C53.363 24.6777 55.3626 25.3627 56.3431 24.1214L59.8813 19.643C60.0881 19.3813 60.3979 19.2312 60.7315 19.2312H65.0091C68.0369 19.2312 70.5 16.768 70.5 13.7402V10.4896C70.5 7.4618 68.0367 4.99854 65.0091 4.99854ZM68.4492 13.7402C68.4492 15.6372 66.9059 17.1804 65.0091 17.1804H60.7315C59.7665 17.1804 58.8702 17.6147 58.2722 18.3717L55.3982 22.0094L55.376 18.1998C55.3728 17.6359 54.9146 17.1803 54.3507 17.1803C52.4538 17.1803 50.9105 15.637 50.9105 13.7401V10.4896C50.9105 8.5926 52.4538 7.04932 54.3507 7.04932H65.0092C66.9061 7.04932 68.4494 8.5926 68.4494 10.4896V13.7402H68.4492Z" fill="#013799"/>
</g>
<defs>
<clipPath id="clip0_2002_286">
<rect width="70" height="70" fill="white" transform="translate(0.5)"/>
</clipPath>
</defs>
</svg>
