<svg width="71" height="70" viewBox="0 0 71 70" fill="none" xmlns="http://www.w3.org/2000/svg">
<g clip-path="url(#clip0_2002_150)">
<path fill-rule="evenodd" clip-rule="evenodd" d="M14.8819 67.8638C14.3405 67.8638 13.9172 67.4405 13.9172 66.9089V49.1111H5.73694V66.9089C5.73694 67.4405 5.31366 67.8638 4.78209 67.8638C4.24067 67.8638 3.81738 67.4405 3.81738 66.9089V48.1563C3.81738 47.6247 4.24067 47.2014 4.78209 47.2014H14.8819C15.4135 47.2014 15.8368 47.6247 15.8368 48.1563V66.9089C15.8368 67.4405 15.3938 67.8638 14.8819 67.8638Z" fill="#013799"/>
<path fill-rule="evenodd" clip-rule="evenodd" d="M31.9905 67.8639C31.4589 67.8639 31.0356 67.4406 31.0356 66.909V36.9737H22.8455V66.909C22.8455 67.4406 22.4222 67.8639 21.8906 67.8639C21.3591 67.8639 20.9358 67.4406 20.9358 66.909V36.0188C20.9358 35.4873 21.3591 35.064 21.8906 35.064H31.9905C32.5221 35.064 32.9454 35.4873 32.9454 36.0188V66.909C32.9454 67.4406 32.5221 67.8639 31.9905 67.8639Z" fill="#013799"/>
<path fill-rule="evenodd" clip-rule="evenodd" d="M49.1091 67.8638C48.5776 67.8638 48.1543 67.4405 48.1543 66.909V25.5252H39.974V66.909C39.974 67.4405 39.5507 67.8638 39.0093 67.8638C38.4777 67.8638 38.0544 67.4405 38.0544 66.909V24.5703C38.0544 24.0388 38.4777 23.6155 39.0093 23.6155H49.1091C49.6407 23.6155 50.0738 24.0388 50.0738 24.5703V66.909C50.0738 67.4405 49.6309 67.8638 49.1091 67.8638Z" fill="#013799"/>
<path fill-rule="evenodd" clip-rule="evenodd" d="M66.2276 67.8638C65.6862 67.8638 65.2629 67.4405 65.2629 66.909V14.441H57.0826V66.909C57.0826 67.4405 56.6594 67.8638 56.1278 67.8638C55.5864 67.8638 55.1631 67.4405 55.1631 66.909V13.4861C55.1631 12.9545 55.5864 12.5312 56.1278 12.5312H66.2276C66.7592 12.5312 67.1825 12.9545 67.1825 13.4861V66.909C67.1825 67.4405 66.7592 67.8638 66.2276 67.8638Z" fill="#013799"/>
<path fill-rule="evenodd" clip-rule="evenodd" d="M8.63108 33.9712C8.23732 33.9712 7.86326 33.7251 7.72544 33.3412C7.54825 32.849 7.81404 32.3076 8.30623 32.1304C15.069 29.7088 24.7849 24.8164 33.0636 19.6582C43.1438 13.4073 50.2314 7.34346 53.0369 2.61838C53.3126 2.16556 53.8933 2.0179 54.3462 2.29353C54.799 2.56916 54.9466 3.14995 54.671 3.60277C50.8713 10.0013 41.3621 16.7542 34.0677 21.3021C25.7004 26.48 15.8368 31.4413 8.95593 33.9023C8.84765 33.9417 8.73936 33.9712 8.63108 33.9712Z" fill="#013799"/>
<path fill-rule="evenodd" clip-rule="evenodd" d="M53.6077 13.3088C53.5978 13.3088 53.5978 13.3088 53.5782 13.3088C53.0466 13.2892 52.643 12.856 52.6528 12.3245L52.8891 4.27214L45.6538 5.80779C45.1321 5.91607 44.63 5.58138 44.5218 5.06949C44.4135 4.54777 44.7383 4.03588 45.2601 3.9276L53.6766 2.1557C53.9621 2.09664 54.2672 2.16554 54.4838 2.36242C54.7004 2.54946 54.8382 2.82508 54.8283 3.1204L54.5625 12.3934C54.5527 12.8954 54.1294 13.3088 53.6077 13.3088Z" fill="#013799"/>
<path fill-rule="evenodd" clip-rule="evenodd" d="M69.5352 67.8638H1.47447C0.933053 67.8638 0.509766 67.4405 0.509766 66.909C0.509766 66.3774 0.933053 65.9541 1.47447 65.9541H69.5352C70.0668 65.9541 70.4901 66.3774 70.4901 66.909C70.4901 67.4405 70.0668 67.8638 69.5352 67.8638Z" fill="#013799"/>
</g>
<defs>
<clipPath id="clip0_2002_150">
<rect width="70" height="70" fill="white" transform="translate(0.5)"/>
</clipPath>
</defs>
</svg>
