<svg width="71" height="70" viewBox="0 0 71 70" fill="none" xmlns="http://www.w3.org/2000/svg">
<path d="M35.5 35C40.9272 35 45.3438 30.5834 45.3438 25.1562C45.3438 19.7291 40.9272 15.3125 35.5 15.3125C30.0728 15.3125 25.6562 19.7291 25.6562 25.1562C25.6562 30.5834 30.0728 35 35.5 35ZM35.5 17.5C39.7219 17.5 43.1562 20.9344 43.1562 25.1562C43.1562 29.3781 39.7219 32.8125 35.5 32.8125C31.2781 32.8125 27.8438 29.3781 27.8438 25.1562C27.8438 20.9344 31.2781 17.5 35.5 17.5Z" fill="#013799"/>
<path d="M2.82966 31.1642C3.02325 31.5065 3.38747 31.7187 3.78122 31.7187H21.9692L22.0173 34.1796C22.0261 34.6379 22.3203 35.0426 22.7534 35.1913L27.1131 36.7007L29.8934 40.3823C30.1701 40.7487 30.6459 40.9029 31.0845 40.7695L35.5 39.4241L39.9143 40.7684C40.0193 40.8001 40.1265 40.8154 40.2337 40.8154C40.5706 40.8154 40.8954 40.659 41.1065 40.3812L43.8879 36.6996L48.2476 35.1902C48.6808 35.0404 48.975 34.6368 48.9837 34.1785L49.0308 31.7187H67.2187C67.6125 31.7187 67.9767 31.5065 68.1703 31.1642C68.365 30.8218 68.3595 30.4007 68.1561 30.0627L65.2128 25.1562L68.1561 20.2507C68.3595 19.9127 68.3639 19.4916 68.1703 19.1493C67.9767 18.8059 67.6125 18.5937 67.2187 18.5937H49.0308L48.9826 16.1327C48.9739 15.6745 48.6797 15.2698 48.2465 15.121L43.8868 13.6116L41.1054 9.93118C40.8287 9.56477 40.3518 9.41056 39.9143 9.54399L35.5 10.8882L31.0856 9.54399C30.647 9.41165 30.1712 9.56477 29.8945 9.93118L27.1131 13.6127L22.7534 15.1221C22.3203 15.272 22.0261 15.6756 22.0173 16.1338L21.9692 18.5937H3.78122C3.38747 18.5937 3.02325 18.8059 2.82966 19.1482C2.63497 19.4906 2.64044 19.9116 2.84388 20.2496L5.78716 25.1562L2.84388 30.0617C2.64044 30.3996 2.63497 30.8207 2.82966 31.1642ZM65.2872 20.7812L63.0001 24.5929C62.7923 24.9396 62.7923 25.3716 63.0001 25.7184L65.2872 29.5312H49.0975L51.7094 25.7807C51.9708 25.4056 51.9708 24.9068 51.7094 24.5306L49.0975 20.7812H65.2872ZM23.9117 21.7229C24.0353 21.5457 24.1031 21.3357 24.1075 21.1191L24.1895 16.9377L28.1434 15.5695C28.349 15.4984 28.5273 15.3682 28.6586 15.1954L31.1797 11.8584L35.1817 13.0779C35.3895 13.1413 35.6115 13.1413 35.8193 13.0779L39.8214 11.8595L42.3425 15.1965C42.4737 15.3693 42.652 15.4995 42.8576 15.5706L46.8115 16.9388L46.8936 21.1202C46.8979 21.3368 46.9658 21.5468 47.0904 21.724L49.4792 25.1562L47.0883 28.5895C46.9647 28.7667 46.8969 28.9767 46.8925 29.1932L46.8104 33.3746L42.8565 34.7429C42.6509 34.814 42.4726 34.9441 42.3414 35.117L39.8203 38.454L35.8183 37.2345C35.7143 37.2038 35.6072 37.1874 35.5 37.1874C35.3928 37.1874 35.2856 37.2038 35.1806 37.2345L31.1786 38.4529L28.6575 35.1159C28.5262 34.9431 28.3479 34.8129 28.1423 34.7418L24.1884 33.3735L24.1064 29.1921C24.102 28.9756 24.0342 28.7656 23.9095 28.5884L21.5208 25.1562L23.9117 21.7229ZM7.99981 25.7195C8.20763 25.3727 8.20763 24.9407 7.99981 24.594L5.71278 20.7812H21.9014L19.2895 24.5317C19.0281 24.9068 19.0281 25.4056 19.2895 25.7818L21.9025 29.5312H5.71278L7.99981 25.7195Z" fill="#013799"/>
<path d="M34.4062 29.5313C34.4226 29.5313 34.439 29.5313 34.4554 29.5302C34.7628 29.516 35.0493 29.3738 35.2462 29.1375L40.715 22.575L39.035 21.175L34.3329 26.8177L31.8982 24.383L30.3517 25.9296L33.6329 29.2108C33.8386 29.4165 34.1164 29.5313 34.4062 29.5313Z" fill="#013799"/>
<path d="M40.9393 66.2047C40.9633 66.7713 40.9863 67.3193 41.0016 67.8432L43.188 67.7819C43.1738 67.2493 43.1497 66.6893 43.1246 66.1129C42.9747 62.5702 42.7866 58.1624 44.6864 55.4893C44.6974 55.475 44.6974 55.475 48.6688 49.8641C48.8471 49.6114 49.1391 49.4605 49.4475 49.4605C49.9277 49.4605 50.176 49.7777 50.2602 49.9133C50.3444 50.05 50.5172 50.4132 50.3335 50.7839L47.9907 54.8363C47.7019 55.335 47.5499 55.9027 47.5499 56.4791H49.7374C49.7374 56.2866 49.7877 56.0974 49.8839 55.9322L50.1158 55.5308L55.0552 53.8825L55.0902 53.9L55.1077 53.865L58.0893 52.8697C58.6066 52.6761 59.0693 52.3513 59.428 51.9335L64.433 46.0939C64.6124 45.885 64.8727 45.7614 65.1472 45.7549C65.4436 45.7538 65.6919 45.861 65.8921 46.0732C66.195 46.3925 66.2038 46.946 65.9139 47.3616L59.8283 56.0558C59.6752 56.2735 59.498 56.4714 59.3 56.6454L55.1668 60.2624C53.7252 61.5246 50.3936 64.7763 50.6036 67.7108L52.7857 67.5533C52.6708 65.9564 54.7719 63.5141 56.6072 61.9085L60.7405 58.2914C61.0697 58.0027 61.365 57.6746 61.6199 57.3114L67.7055 48.6161C68.5947 47.3463 68.5007 45.6444 67.4802 44.5693C66.8578 43.9119 65.9927 43.5641 65.0936 43.5685C64.2 43.5914 63.3535 43.9929 62.7716 44.671L62.4468 45.0494L62.5211 44.6021C62.6557 43.7982 62.4303 42.9811 61.9032 42.3588C61.376 41.7375 60.6071 41.3799 59.7922 41.3799C58.5202 41.3799 57.4166 42.2418 57.1071 43.4755L56.36 46.4669L53.5546 52.0778L51.7641 52.675L52.2563 51.8219C52.7474 50.8408 52.696 49.6979 52.1196 48.7649C51.5432 47.8319 50.5435 47.2741 49.4464 47.2741C48.4282 47.2741 47.4689 47.7707 46.8816 48.6008L42.9189 54.1997C40.5696 57.5061 40.7741 62.3296 40.9393 66.2047ZM58.3714 47.3364C58.4075 47.2654 58.4349 47.1899 58.4546 47.1122L59.2311 44.0049C59.2957 43.7468 59.5275 43.5663 59.7933 43.5663C60.0263 43.5663 60.1707 43.6943 60.2352 43.7719C60.3008 43.8485 60.4036 44.0114 60.3653 44.2411L59.696 48.2607L57.7677 50.5094C57.6485 50.6494 57.4932 50.7577 57.3586 50.808L56.4913 51.0968L58.3714 47.3364Z" fill="#013799"/>
<path d="M21.5885 49.4605C21.8981 49.4605 22.1901 49.6114 22.3684 49.8641C22.3684 49.8641 26.2599 55.3624 26.3332 55.4663C28.2495 58.1635 28.0624 62.5724 27.9115 66.1139C27.8874 66.6903 27.8634 67.2492 27.8492 67.7819L30.0356 67.8432C30.0498 67.3203 30.0738 66.7724 30.0979 66.2069C30.262 62.3307 30.4665 57.5072 28.116 54.1986L28.1128 54.2008C27.9006 53.8913 27.1338 52.8096 24.1545 48.5986C23.566 47.7674 22.6068 47.2719 21.5885 47.2719C20.4915 47.2719 19.4918 47.8286 18.9154 48.7616C18.339 49.6957 18.2876 50.8375 18.8093 51.8777L19.2687 52.6717L17.4815 52.0757L14.676 46.4647L13.9279 43.4733C13.6184 42.2396 12.5148 41.3777 11.2438 41.3777C10.4279 41.3777 9.659 41.7342 9.13182 42.3566C8.60572 42.9778 8.38041 43.796 8.51494 44.5988L8.58932 45.0461L8.26447 44.6688C7.6826 43.9907 6.83603 43.5892 5.94244 43.5663C5.06088 43.5619 4.17932 43.9086 3.55588 44.5671C2.5365 45.6433 2.44244 47.3452 3.33057 48.6139L9.41728 57.3092C9.66994 57.6702 9.96525 57.9994 10.2956 58.2892L14.4288 61.9063C16.2631 63.5119 18.3653 65.9532 18.2504 67.5511L20.4324 67.7086C20.6424 64.7741 17.312 61.5224 15.8704 60.2602L11.7371 56.6432C11.5392 56.4692 11.362 56.2724 11.2099 56.0558L5.12213 47.3594C4.83228 46.9449 4.84103 46.3903 5.144 46.0721C5.34416 45.861 5.6165 45.7505 5.88885 45.7538C6.16447 45.7603 6.42478 45.8839 6.60416 46.0928L11.6092 51.9313C11.9679 52.3502 12.4306 52.675 12.9862 52.8828L15.9295 53.865L15.947 53.8989L15.9809 53.8814L20.9213 55.5297L21.1532 55.9322C21.2112 56.0339 21.2998 56.4058 21.2998 56.6913H23.4873C23.4873 56.2855 23.3943 55.4389 23.0465 54.8374L20.7343 50.8419C20.5188 50.4121 20.6917 50.0489 20.7759 49.9122C20.8601 49.7766 21.1084 49.4605 21.5885 49.4605ZM13.7157 50.8211C13.5429 50.7555 13.3887 50.6483 13.2695 50.5083L11.3412 48.2596L10.6718 44.24C10.6335 44.0103 10.7363 43.8485 10.8009 43.7719C10.8654 43.6953 11.0087 43.5663 11.2428 43.5663C11.5096 43.5663 11.7404 43.7467 11.8049 44.0049L12.5815 47.1133C12.6012 47.191 12.6285 47.2653 12.6646 47.3375L14.5459 51.0989L13.7157 50.8211Z" fill="#013799"/>
<path d="M33.9129 45.8643C33.225 45.8118 32.5304 45.7243 31.8512 45.604L31.4706 47.7587C32.2209 47.891 32.9865 47.9873 33.7467 48.0453L33.9129 45.8643Z" fill="#013799"/>
<path d="M38.0627 45.7703C37.3791 45.8545 36.6812 45.9048 35.9922 45.9201L36.0414 48.1076C36.8037 48.0901 37.5738 48.0343 38.3306 47.9414L38.0627 45.7703Z" fill="#013799"/>
<path d="M29.8278 45.1413C29.1672 44.9543 28.5044 44.7312 27.8602 44.4763L27.0585 46.5118C27.7705 46.7929 28.5022 47.0401 29.2328 47.2468L29.8278 45.1413Z" fill="#013799"/>
<path d="M40.1069 45.4146L40.5893 47.5474C41.333 47.379 42.0768 47.1712 42.8008 46.9273L42.1041 44.8535C41.4522 45.0734 40.7796 45.2615 40.1069 45.4146Z" fill="#013799"/>
<path d="M25.9713 43.6178C25.3577 43.3006 24.7539 42.9484 24.1764 42.5732L22.9832 44.4064C23.6208 44.822 24.288 45.2103 24.9672 45.5603L25.9713 43.6178Z" fill="#013799"/>
<path d="M45.8863 43.1462C45.288 43.4919 44.6657 43.8112 44.0389 44.0945L44.9391 46.0884C45.6325 45.7756 46.3194 45.4223 46.98 45.0406L45.8863 43.1462Z" fill="#013799"/>
<path d="M22.4953 41.3547C21.9582 40.9226 21.4354 40.4578 20.9432 39.9744L19.4098 41.5351C19.9534 42.07 20.5309 42.583 21.1248 43.0598L22.4953 41.3547Z" fill="#013799"/>
<path d="M49.2539 40.7224C48.7365 41.1796 48.1907 41.6149 47.6307 42.0185L48.9093 43.7937C49.5273 43.3485 50.1311 42.8673 50.7031 42.3619L49.2539 40.7224Z" fill="#013799"/>
<path d="M16.4742 38.0132C16.9008 38.6443 17.3656 39.2612 17.8546 39.8474L19.5346 38.4463C19.0927 37.9159 18.6727 37.358 18.2855 36.7871L16.4742 38.0132Z" fill="#013799"/>
<path d="M50.7404 39.2721L52.3449 40.7596C52.8644 40.1985 53.361 39.6079 53.8193 39.0019L52.0769 37.6807C51.6613 38.2286 51.2118 38.7646 50.7404 39.2721Z" fill="#013799"/>
<path d="M14.2933 33.9806C14.5886 34.6872 14.9211 35.3828 15.2832 36.0522L17.2071 35.012C16.8801 34.4072 16.5782 33.7772 16.3124 33.1384L14.2933 33.9806Z" fill="#013799"/>
<path d="M56.2113 35.0887L54.2403 34.1404C53.9406 34.7638 53.607 35.3774 53.2483 35.9648L55.1142 37.1055C55.5102 36.4558 55.8799 35.7766 56.2113 35.0887Z" fill="#013799"/>
<path d="M15.3203 15.529L17.3055 16.4478C17.5931 15.8243 17.9191 15.2064 18.2712 14.6103L16.3878 13.4968C15.9995 14.1553 15.6408 14.8389 15.3203 15.529Z" fill="#013799"/>
<path d="M57.2493 16.0365C56.9463 15.3387 56.6028 14.6463 56.231 13.9802L54.3213 15.0466C54.6582 15.6504 54.9688 16.276 55.2433 16.9082L57.2493 16.0365Z" fill="#013799"/>
<path d="M20.729 11.2679L19.1058 9.80225C18.594 10.3688 18.1061 10.9682 17.6555 11.5818L19.4175 12.8779C19.8255 12.3222 20.2663 11.7808 20.729 11.2679Z" fill="#013799"/>
<path d="M55.0104 12.0346C54.5751 11.4112 54.1015 10.8009 53.6049 10.2212L51.9446 11.6453C52.3952 12.1703 52.8229 12.7226 53.2177 13.287L55.0104 12.0346Z" fill="#013799"/>
<path d="M22.1956 9.79571C22.7064 9.33196 23.2467 8.8879 23.8012 8.47665L22.4986 6.71899C21.8861 7.1729 21.29 7.6629 20.7256 8.17587L22.1956 9.79571Z" fill="#013799"/>
<path d="M48.9432 8.77941C49.4857 9.2016 50.014 9.65879 50.515 10.1368L52.0254 8.5552C51.472 8.02691 50.8879 7.5227 50.2885 7.05566L48.9432 8.77941Z" fill="#013799"/>
<path d="M27.3636 6.3481L26.434 4.36841C25.746 4.69106 25.0635 5.0531 24.4083 5.44575L25.5305 7.32372C26.1233 6.96825 26.7402 6.64122 27.3636 6.3481Z" fill="#013799"/>
<path d="M45.4357 6.56682C46.0504 6.87307 46.6596 7.21541 47.2436 7.584L48.4107 5.73447C47.7643 5.3265 47.0916 4.94807 46.4102 4.60791L45.4357 6.56682Z" fill="#013799"/>
<path d="M29.2853 5.56161C29.9328 5.33411 30.6033 5.13614 31.2749 4.97317L30.7608 2.84692C30.0171 3.0263 29.2766 3.24614 28.5591 3.49771L29.2853 5.56161Z" fill="#013799"/>
<path d="M44.3068 3.68912C43.5915 3.41896 42.8554 3.18162 42.1204 2.98584L41.5571 5.10006C42.221 5.27615 42.8849 5.49053 43.5313 5.73553L44.3068 3.68912Z" fill="#013799"/>
<path d="M33.3158 4.58819C33.9972 4.49413 34.6928 4.43397 35.3841 4.40882L35.3031 2.22241C34.5397 2.25085 33.7697 2.31757 33.0161 2.42147L33.3158 4.58819Z" fill="#013799"/>
<path d="M37.46 4.4341C38.1534 4.47785 38.849 4.55441 39.5261 4.66488L39.875 2.50582C39.1279 2.38441 38.3601 2.2991 37.5956 2.25098L37.46 4.4341Z" fill="#013799"/>
</svg>
