<svg width="31" height="39" viewBox="0 0 31 39" fill="none" xmlns="http://www.w3.org/2000/svg">
<path d="M21.2023 0.92627H5.60668C2.85035 0.92627 0.607788 3.16883 0.607788 5.92517V33.0748C0.607788 35.8312 2.85035 38.0737 5.60668 38.0737H25.3941C28.15 38.0737 30.3926 35.8316 30.3926 33.0748V11.1981L21.2023 0.92627ZM21.9304 5.692L26.1288 10.3844H21.9304V5.692ZM25.3933 35.439H5.60668C4.30295 35.439 3.24248 34.3786 3.24248 33.0748V5.92517C3.24248 4.62143 4.30295 3.56097 5.60668 3.56097H19.2961V13.0186H27.7579V33.0748C27.7575 34.3786 26.697 35.439 25.3933 35.439Z" fill="#13181A"/>
<path d="M24.929 27.5583H6.07031V30.193H24.929V27.5583Z" fill="#13181A"/>
<path d="M24.929 21.833H6.07031V24.4677H24.929V21.833Z" fill="#13181A"/>
<path d="M24.929 16.1088H6.07031V18.7435H24.929V16.1088Z" fill="#13181A"/>
</svg>
