<svg width="36" height="35" viewBox="0 0 36 35" fill="none" xmlns="http://www.w3.org/2000/svg">
<path d="M19.3181 2.89045C20.3722 2.8864 21.4262 2.897 22.48 2.92223L22.7602 2.93234C23.0838 2.94389 23.403 2.95834 23.7887 2.97567C25.3256 3.04789 26.3742 3.29056 27.2943 3.64734C28.2477 4.01423 29.0508 4.51112 29.8539 5.31423C30.5882 6.03588 31.1565 6.90882 31.5193 7.87234C31.8761 8.79245 32.1188 9.84256 32.191 11.3794C32.2083 11.7637 32.2228 12.0843 32.2343 12.4079L32.243 12.6881C32.2687 13.7414 32.2797 14.795 32.2762 15.8486L32.2777 16.9261V18.8183C32.2812 19.8724 32.2701 20.9265 32.2444 21.9802L32.2358 22.2605C32.2242 22.584 32.2098 22.9032 32.1924 23.2889C32.1202 24.8258 31.8747 25.8745 31.5193 26.7946C31.1577 27.7591 30.5892 28.6328 29.8539 29.3541C29.1316 30.0884 28.2582 30.6567 27.2943 31.0196C26.3742 31.3763 25.3256 31.619 23.7887 31.6912C23.403 31.7086 23.0838 31.723 22.7602 31.7346L22.48 31.7432C21.4262 31.7689 20.3722 31.78 19.3181 31.7765L18.2406 31.7779H16.3498C15.2957 31.7815 14.2416 31.7704 13.1879 31.7447L12.9077 31.736C12.5648 31.7236 12.2219 31.7091 11.8792 31.6927C10.3423 31.6205 9.29366 31.3749 8.37211 31.0196C7.40821 30.6575 6.53512 30.0891 5.814 29.3541C5.07884 28.6323 4.50999 27.7588 4.14711 26.7946C3.79033 25.8745 3.54766 24.8258 3.47544 23.2889C3.45935 22.9461 3.44491 22.6033 3.43211 22.2605L3.42488 21.9802C3.39825 20.9265 3.38622 19.8724 3.38877 18.8183V15.8486C3.38474 14.795 3.39534 13.7414 3.42055 12.6881L3.43066 12.4079C3.44222 12.0843 3.45666 11.7637 3.474 11.3794C3.54622 9.84112 3.78888 8.79389 4.14566 7.87234C4.50876 6.90835 5.07872 6.03565 5.81544 5.31567C6.53607 4.58009 7.40861 4.01072 8.37211 3.64734C9.29366 3.29056 10.3409 3.04789 11.8792 2.97567L12.9077 2.93234L13.1879 2.92512C14.2411 2.8985 15.2947 2.88646 16.3483 2.889L19.3181 2.89045ZM17.8332 10.1127C16.8763 10.0991 15.9262 10.2759 15.0382 10.6328C14.1502 10.9896 13.3419 11.5194 12.6604 12.1913C11.9789 12.8632 11.4378 13.6639 11.0684 14.5468C10.6991 15.4297 10.5089 16.3771 10.5089 17.3342C10.5089 18.2912 10.6991 19.2387 11.0684 20.1216C11.4378 21.0045 11.9789 21.8051 12.6604 22.477C13.3419 23.149 14.1502 23.6787 15.0382 24.0356C15.9262 24.3924 16.8763 24.5692 17.8332 24.5557C19.7487 24.5557 21.5857 23.7948 22.9401 22.4403C24.2945 21.0859 25.0554 19.2489 25.0554 17.3335C25.0554 15.418 24.2945 13.581 22.9401 12.2266C21.5857 10.8721 19.7487 10.1127 17.8332 10.1127ZM17.8332 13.0016C18.4088 12.991 18.9808 13.0952 19.5157 13.3081C20.0506 13.521 20.5377 13.8384 20.9486 14.2417C21.3594 14.645 21.6858 15.1261 21.9086 15.6569C22.1315 16.1878 22.2463 16.7577 22.2464 17.3334C22.2465 17.9092 22.1319 18.4791 21.9092 19.01C21.6865 19.541 21.3603 20.0222 20.9496 20.4256C20.5389 20.8291 20.0519 21.1466 19.517 21.3597C18.9822 21.5728 18.4103 21.6772 17.8347 21.6668C16.6854 21.6668 15.5832 21.2102 14.7705 20.3976C13.9579 19.5849 13.5013 18.4827 13.5013 17.3335C13.5013 16.1842 13.9579 15.082 14.7705 14.2693C15.5832 13.4567 16.6854 13.0001 17.8347 13.0001L17.8332 13.0016ZM25.4166 7.94601C24.9506 7.96466 24.5099 8.16289 24.1868 8.49919C23.8637 8.83548 23.6832 9.28375 23.6832 9.75012C23.6832 10.2165 23.8637 10.6648 24.1868 11.001C24.5099 11.3373 24.9506 11.5356 25.4166 11.5542C25.8954 11.5542 26.3547 11.364 26.6933 11.0254C27.0319 10.6868 27.2221 10.2275 27.2221 9.74867C27.2221 9.26981 27.0319 8.81056 26.6933 8.47195C26.3547 8.13334 25.8954 7.94312 25.4166 7.94312V7.94601Z" fill="#13181A"/>
</svg>
