<svg width="36" height="35" viewBox="0 0 36 35" fill="none" xmlns="http://www.w3.org/2000/svg">
<path fill-rule="evenodd" clip-rule="evenodd" d="M20.528 29.9394V18.4398H24.4617L25.0519 13.9569H20.528V11.0952C20.528 9.7977 20.8938 8.91347 22.7929 8.91347L25.2111 8.9125V4.90281C24.7929 4.8495 23.3574 4.72729 21.6866 4.72729C18.1977 4.72729 15.8092 6.81608 15.8092 10.6512V13.9569H11.8635V18.4398H15.8092V29.9394H20.528Z" fill="#13181A"/>
<mask id="mask0_2_424" style="mask-type:luminance" maskUnits="userSpaceOnUse" x="11" y="4" width="15" height="26">
<path fill-rule="evenodd" clip-rule="evenodd" d="M20.528 29.9394V18.4398H24.4617L25.0519 13.9569H20.528V11.0952C20.528 9.7977 20.8938 8.91347 22.7929 8.91347L25.2111 8.9125V4.90281C24.7929 4.8495 23.3574 4.72729 21.6866 4.72729C18.1977 4.72729 15.8092 6.81608 15.8092 10.6512V13.9569H11.8635V18.4398H15.8092V29.9394H20.528Z" fill="white"/>
</mask>
<g mask="url(#mask0_2_424)">
</g>
</svg>
